# xmcd CD database file
#
# Track frame offsets:
#	150
#	1522
#	17907
#	41052
#	41732
#	54450
#	59472
#	100887
#	106955
#	124840
#	129482
#	168937
#	171207
#	206700
#	207495
#	230917
#	232797
#	249932
#	270330
#
# Disc length: 3610 seconds
#
# Revision: 14
# Processed by: cddbd v1.5.2PL0 Copyright (c) Steve Scherf et al.
# Submitted via: CDex 1.51
#
DISCID=010e1813
DTITLE=Duke Ellington - At Newport - Disc 2
DYEAR=1956
DGENRE=Jazz
TTITLE0=Duke intros Johnny Hodges
TTITLE1=I Got It Bad (And That Ain't Good)
TTITLE2=Jeep's Blues
TTITLE3=Duke Calms Crowd, intros Nance and Tune
TTITLE4=Tulip or Turnip
TTITLE5=Riot Prevention
TTITLE6=Skin Deep
TTITLE7=Mood Indigo
TTITLE8=Studio Concert (Excerpts)
TTITLE9=Fr. N O'Connor intros Duke Ellington
TTITLE10=Pt I, Festival Junction
TTITLE11=Duke anncs Soloists, intros Pt II
TTITLE12=Pt II, Blues to Be There
TTITLE13=Duke anncs Nance and Procope, intros Pt III
TTITLE14=Pt III, Newport Up
TTITLE15=Duke anncs Hamilton, Gonsalves and Terry
TTITLE16=I Got It Bad (And That Ain't Good)
TTITLE17=Jeep's Blues
TTITLE18=Pause Track
EXTD=YEAR: 1956
EXTT0=
EXTT1=
EXTT2=
EXTT3=
EXTT4=
EXTT5=
EXTT6=
EXTT7=
EXTT8=
EXTT9=
EXTT10=
EXTT11=
EXTT12=
EXTT13=
EXTT14=
EXTT15=
EXTT16=
EXTT17=
EXTT18=
PLAYORDER=
